<?xml version="1.0" standalone="no"?><!DOCTYPE svg PUBLIC "-//W3C//DTD SVG 1.1//EN" "http://www.w3.org/Graphics/SVG/1.1/DTD/svg11.dtd"><svg t="1736926978795" class="icon" viewBox="0 0 1024 1024" version="1.1" xmlns="http://www.w3.org/2000/svg" p-id="3300" xmlns:xlink="http://www.w3.org/1999/xlink" width="200" height="200"><path d="M606.1 386.9c17.4 0 31.6 14.1 31.6 31.6v315.9c0 17.4-14.1 31.6-31.6 31.6s-31.6-14.1-31.6-31.6v-316c0-17.4 14.1-31.5 31.6-31.5z m-189.6 0c17.4 0 31.6 14.1 31.6 31.6v315.9c0 17.4-14.1 31.6-31.6 31.6-17.4 0-31.6-14.1-31.6-31.6v-316c0-17.4 14.2-31.5 31.6-31.5z m-126.4-63.2V766c0 34.9 28.3 63.2 63.2 63.2h315.9c34.9 0 63.2-28.3 63.2-63.2V323.7H290.1z m158-126.4c-34.9 0-63.2 28.3-63.2 63.2h252.7c0-34.9-28.3-63.2-63.2-63.2H448.1zM226.9 323.7h-63.2c-17.4 0-31.6-14.1-31.6-31.6 0-17.4 14.1-31.6 31.6-31.6h158v-31.6c0-52.3 42.4-94.8 94.8-94.8h189.6c52.3 0 94.8 42.4 94.8 94.8v31.6h158c17.4 0 31.6 14.1 31.6 31.6 0 17.4-14.1 31.6-31.6 31.6h-63.2V766c0 69.8-56.6 126.4-126.4 126.4h-316c-69.8 0-126.4-56.6-126.4-126.4V323.7z" p-id="3301"></path></svg>