<?xml version="1.0" standalone="no"?><!DOCTYPE svg PUBLIC "-//W3C//DTD SVG 1.1//EN" "http://www.w3.org/Graphics/SVG/1.1/DTD/svg11.dtd"><svg t="1736928871583" class="icon" viewBox="0 0 1024 1024" version="1.1" xmlns="http://www.w3.org/2000/svg" p-id="7747" xmlns:xlink="http://www.w3.org/1999/xlink" width="200" height="200"><path d="M145.066667 263.125333a75.392 75.392 0 1 1 150.784 0v436.906667c0 34.304-11.093333 67.626667-31.701334 95.018667l-23.210666 30.976a25.6 25.6 0 0 1-40.96 0l-23.210667-30.976a158.336 158.336 0 0 1-31.701333-94.976V263.168z m51.2 108.544v328.405334c0 23.168 7.552 45.738667 21.461333 64.256l2.730667 3.669333 2.730666-3.626667c13.952-18.56 21.461333-41.130667 21.461334-64.298666V371.626667H196.266667z m48.384-51.2H196.266667V263.125333a24.192 24.192 0 0 1 48.384 0v57.386667z m99.541333 25.6a158.336 158.336 0 0 1 158.336-158.293333h199.125333a158.336 158.336 0 0 1 158.293334 158.293333v232.32a25.6 25.6 0 1 1-51.2 0V346.112a107.136 107.136 0 0 0-107.093334-107.178667h-199.125333a107.136 107.136 0 0 0-107.093333 107.136v331.861334a107.136 107.136 0 0 0 107.093333 107.136h66.389333a25.6 25.6 0 1 1 0 51.2h-66.389333a158.336 158.336 0 0 1-158.293333-158.293334V346.026667z m132.736 0a25.6 25.6 0 0 1 25.6-25.6h199.125333a25.6 25.6 0 1 1 0 51.2h-199.125333a25.6 25.6 0 0 1-25.6-25.6z m0 132.778667a25.6 25.6 0 0 1 25.6-25.6h199.125333a25.6 25.6 0 1 1 0 51.2h-199.125333a25.6 25.6 0 0 1-25.6-25.6z m0 132.693333a25.6 25.6 0 0 1 25.6-25.6h99.541333a25.6 25.6 0 0 1 0 51.2h-99.541333a25.6 25.6 0 0 1-25.6-25.6z m374.314667 47.146667a25.6 25.6 0 0 1 2.389333 36.096l-95.232 108.842667a58.794667 58.794667 0 0 1-80.938667 7.210666l-58.197333-46.506666a25.6 25.6 0 0 1 32-40.021334l58.154667 46.549334c3.2 2.56 7.808 2.133333 10.453333-0.938667l95.232-108.8a25.6 25.6 0 0 1 36.138667-2.432z" p-id="7748"></path></svg>